<mxfile host="app.diagrams.net" modified="2023-07-04T05:27:26.564Z" agent="Mozilla/5.0 (Windows NT 10.0; Win64; x64) AppleWebKit/537.36 (KHTML, like Gecko) Chrome/114.0.0.0 Safari/537.36 Edg/114.0.1823.67" version="21.5.2" etag="rYnUpTxe9J-9Qn2C934_" type="github">
  <diagram name="Page-1" id="or92mec-x8d75PTwvgix">
    <mxGraphModel>
      <root>
        <mxCell id="0" />
        <mxCell id="1" parent="0" />
      </root>
    </mxGraphModel>
  </diagram>
</mxfile>
